<?xml version="1.0" encoding="UTF-8" standalone="no"?>
<!-- Created with Inkscape (http://www.inkscape.org/) -->

<svg
   width="1920"
   height="1080"
   viewBox="0 0 507.99998 285.74998"
   version="1.1"
   id="svg5"
   inkscape:version="1.1.1 (3bf5ae0d25, 2021-09-20)"
   sodipodi:docname="start.svg"
   xmlns:inkscape="http://www.inkscape.org/namespaces/inkscape"
   xmlns:sodipodi="http://sodipodi.sourceforge.net/DTD/sodipodi-0.dtd"
   xmlns="http://www.w3.org/2000/svg"
   xmlns:svg="http://www.w3.org/2000/svg">
  <sodipodi:namedview
     id="namedview7"
     pagecolor="#ffffff"
     bordercolor="#666666"
     borderopacity="1.0"
     inkscape:pageshadow="2"
     inkscape:pageopacity="0.0"
     inkscape:pagecheckerboard="0"
     inkscape:document-units="mm"
     showgrid="false"
     width="215mm"
     inkscape:zoom="0.76288203"
     inkscape:cx="990.97891"
     inkscape:cy="813.36298"
     inkscape:window-width="1920"
     inkscape:window-height="1009"
     inkscape:window-x="-8"
     inkscape:window-y="-8"
     inkscape:window-maximized="1"
     inkscape:current-layer="g1331"
     units="px"
     showguides="true"
     inkscape:guide-bbox="true" />
  <defs
     id="defs2">
    <pattern
       id="EMFhbasepattern"
       patternUnits="userSpaceOnUse"
       width="6"
       height="6"
       x="0"
       y="0" />
  </defs>
  <g
     inkscape:label="Livello 1"
     inkscape:groupmode="layer"
     id="layer1">
    <g
       id="g966"
       inkscape:export-filename="C:\Users\fc0882\Desktop\Presentazione\1.png"
       inkscape:export-xdpi="100.006"
       inkscape:export-ydpi="100.006">
      <g
         id="g970"
         inkscape:export-filename="C:\Users\fc0882\Desktop\Presentazione\1.png"
         inkscape:export-xdpi="100.006"
         inkscape:export-ydpi="100.006">
        <g
           id="g992"
           inkscape:export-filename="C:\Users\fc0882\Desktop\Presentazione\1.png"
           inkscape:export-xdpi="100.006"
           inkscape:export-ydpi="100.006">
          <g
             id="g998"
             inkscape:export-filename="C:\Users\fc0882\Desktop\Presentazione\1.png"
             inkscape:export-xdpi="100.006"
             inkscape:export-ydpi="100.006">
            <g
               id="g1004"
               inkscape:export-filename="C:\Users\fc0882\Desktop\Presentazione\1.png"
               inkscape:export-xdpi="100.006"
               inkscape:export-ydpi="100.006">
              <g
                 id="g1223"
                 inkscape:export-filename="C:\Users\fc0882\Desktop\Presentazione\1.png"
                 inkscape:export-xdpi="100.006"
                 inkscape:export-ydpi="100.006">
                <g
                   id="g1010"
                   inkscape:export-filename="C:\Users\fc0882\Desktop\Presentazione\1.png"
                   inkscape:export-xdpi="100.006"
                   inkscape:export-ydpi="100.006">
                  <g
                     id="g1331"
                     inkscape:export-filename="C:\Users\fc0882\Desktop\Presentazione\1.png"
                     inkscape:export-xdpi="100.006"
                     inkscape:export-ydpi="100.006"
                     transform="translate(-688.09248,65.202312)">
                    <rect
                       style="fill:#ffffff;stroke:none;stroke-width:0.800535"
                       id="rect892"
                       width="508"
                       height="285.75"
                       x="688.09247"
                       y="-65.202316" />
                    <rect
                       style="fill:#4d4d4d;fill-opacity:1;stroke-width:0.0518111;stop-color:#000000"
                       id="rect3992-9-7-4"
                       width="175.81967"
                       height="0.39246047"
                       x="854.18268"
                       y="160.03497" />
                    <rect
                       style="fill:#ffffff;fill-opacity:1;stroke:none;stroke-width:0.0738272;stop-color:#000000"
                       id="rect18973"
                       width="373.34628"
                       height="1.9171451"
                       x="755.41937"
                       y="211.37764" />
                    <text
                       xml:space="preserve"
                       style="font-style:normal;font-variant:normal;font-weight:normal;font-stretch:normal;font-size:23.273px;line-height:1.25;font-family:'Century Gothic';-inkscape-font-specification:'Century Gothic';fill:#4d4d4d;fill-opacity:1;stroke-width:1.32763"
                       x="875.46667"
                       y="73.606979"
                       id="text5042"><tspan
                         sodipodi:role="line"
                         id="tspan5040"
                         style="font-style:normal;font-variant:normal;font-weight:normal;font-stretch:normal;font-size:23.273px;font-family:'Century Gothic';-inkscape-font-specification:'Century Gothic';fill:#4d4d4d;fill-opacity:1;stroke-width:1.32763"
                         x="875.46667"
                         y="73.606979">DevSecOps</tspan></text>
                    <text
                       xml:space="preserve"
                       style="font-style:normal;font-variant:normal;font-weight:normal;font-stretch:normal;font-size:9.53401px;line-height:1.25;font-family:'Century Gothic';-inkscape-font-specification:'Century Gothic';fill:#4d4d4d;fill-opacity:1;stroke-width:0.543876"
                       x="808.78162"
                       y="128.17807"
                       id="text5042-6"><tspan
                         sodipodi:role="line"
                         id="tspan5040-5"
                         style="font-style:normal;font-variant:normal;font-weight:normal;font-stretch:normal;font-size:9.53401px;font-family:'Century Gothic';-inkscape-font-specification:'Century Gothic';fill:#4d4d4d;fill-opacity:1;stroke-width:0.543876"
                         x="808.78162"
                         y="128.17807">Integrare e automatizzare la sicurezza nei workflow CI/CD</tspan></text>
                    <text
                       xml:space="preserve"
                       style="font-style:normal;font-variant:normal;font-weight:normal;font-stretch:normal;font-size:7.45523px;line-height:1.25;font-family:'Century Gothic';-inkscape-font-specification:'Century Gothic';fill:#4d4d4d;fill-opacity:1;stroke-width:0.425291"
                       x="921.94189"
                       y="197.72346"
                       id="text5042-6-0"><tspan
                         sodipodi:role="line"
                         id="tspan5040-5-2"
                         style="font-style:normal;font-variant:normal;font-weight:normal;font-stretch:normal;font-size:7.45523px;font-family:'Century Gothic';-inkscape-font-specification:'Century Gothic';fill:#4d4d4d;fill-opacity:1;stroke-width:0.425291"
                         x="921.94189"
                         y="197.72346">10/01/2025</tspan></text>
                    <g
                       id="g6347"
                       transform="matrix(0.17340334,0,0,0.17340334,919.89686,-15.276335)"
                       style="stroke-width:4.76821">
                      <path
                         d="m 184.31481,67.704459 c 13.469,-7.736 26.902,-15.535 40.417,-23.191 12.828,-7.268 27.921,-0.565 30.829,13.579 1.683,8.182 -1.97,17.021 -9.357,21.326 -24.218,14.113 -48.471,28.170001 -72.845,42.012001 -7.544,4.284 -15.315,3.496 -22.19,-1.754 -6.984,-5.33 -9.185,-12.682 -7.547,-21.239001 1.87,-6.514 6.15,-10.869 11.987,-14.127 9.651,-5.386 19.145,-11.056 28.706,-16.606"
                         fill="#fabc05"
                         id="path6339"
                         style="stroke-width:10.0241" />
                      <path
                         d="m 194.20341,62.078959 c -13.435,-7.796 -26.904,-15.531 -40.292,-23.406 -12.709,-7.476 -14.449,-23.898 -3.655,-33.4900003 6.244,-5.54699999 15.725,-6.804 23.147,-2.559 24.332,13.9170003 48.632,27.8930003 72.806,42.0800003 7.482,4.391 10.684,11.516 9.577,20.095 -1.125,8.712 -6.391,14.294 -14.62,17.155 -6.577,1.638 -12.488,0.108 -18.228,-3.318 -9.491,-5.665 -19.148,-11.053 -28.735,-16.557"
                         fill="#109d58"
                         id="path6341"
                         style="stroke-width:10.0241" />
                      <path
                         d="m 71.75181,56.562859 c -8.621,4.898 -17.247,9.787 -25.859,14.7 -5.038,2.874 -10.02,5.846 -15.084,8.672 -10.203,5.695 -22.3249998,2.357 -28.1099998,-7.674 -5.521,-9.572 -2.34800003,-21.982 7.4779998,-27.718 24.025,-14.023 48.112,-27.944 72.286,-41.7090003 7.414,-4.222 15.106,-3.69099999 21.962,1.356 7.236,5.327 9.605,12.8230003 7.98,21.6110003 -1.008,2.126 -1.61,4.619 -3.119,6.294 -2.455,2.725 -5.245,5.334 -8.351,7.25 -9.612,5.927 -19.439,11.505 -29.183,17.218"
                         fill="#e94436"
                         id="path6343"
                         style="stroke-width:10.0241" />
                      <path
                         d="m 61.86701,62.056959 c 8.553,5.016 17.1,10.043 25.661,15.045 5.007,2.926 10.072,5.755 15.051,8.726 10.034,5.99 13.205,18.156001 7.41,28.181001 -5.53,9.568 -17.863,13.026 -27.744,7.383 -24.157,-13.795 -48.256,-27.693001 -72.2639998,-41.746001 -7.363,-4.31 -10.74900003,-11.237 -9.80600003,-19.698 0.99500003,-8.931 6.30200003,-14.73 14.72499983,-17.717 2.345,-0.189 4.805,-0.915 7.011,-0.445 3.587,0.764 7.242,1.875 10.454,3.607 9.939,5.36 19.683,11.082 29.502,16.664"
                         fill="#4385f3"
                         id="path6345"
                         style="stroke-width:10.0241" />
                    </g>
                    <rect
                       style="opacity:1;fill:#ffffff;stroke-width:0.499999;stop-color:#000000"
                       id="rect873"
                       width="52.624378"
                       height="34.65176"
                       x="1143.4681"
                       y="185.89592" />
                  </g>
                </g>
              </g>
            </g>
          </g>
        </g>
      </g>
    </g>
  </g>
</svg>
